<svg height="512pt" viewBox="-18 0 512 512" width="512pt" xmlns="http://www.w3.org/2000/svg"><path d="m449.59375 14.304688h-125.375c-4.230469 0-7.660156 3.433593-7.660156 7.660156 0 4.230468 3.429687 7.664062 7.660156 7.664062h125.375c5.914062 0 10.726562 4.8125 10.726562 10.730469v322.890625c0 45.109375-36.699218 81.808594-81.808593 81.808594h-87.679688c-34.109375 0-64.023437-21.117188-76.160156-51.925782-3.648437-9.265624-5.648437-19.339843-5.648437-29.882812 0-4.753906 0-319.363281 0-322.890625 0-5.917969 4.808593-10.730469 10.726562-10.730469h73.816406c4.242188 0 7.664063-3.433594 7.664063-7.664062 0-4.226563-3.421875-7.660156-7.664063-7.660156h-44.105468c-5.507813-8.59375-15.160157-14.304688-26.125-14.304688h-192.296876c-17.113281 0-31.039062 13.925781-31.039062 31.039062v173.640626c0 4.230468 3.433594 7.664062 7.664062 7.664062 4.238282 0 7.660157-3.433594 7.660157-7.664062v-173.640626c0-8.664062 7.050781-15.714843 15.714843-15.714843h24.914063l5.589844 28.617187c1.210937 6.148438 6.632812 10.613282 12.894531 10.613282h106.316406c6.410156 0 11.855469-4.589844 12.941406-10.90625v-.007813 18.40625h-148.484374c-11.484376 0-20.824219 9.339844-20.824219 20.8125v332.609375c0 11.472656 9.339843 20.8125 20.824219 20.8125h148.484374v8.847656h-162.65625c-8.664062 0-15.714843-7.050781-15.714843-15.714844v-194.082031c0-4.242187-3.421875-7.664062-7.660157-7.664062-4.230468 0-7.664062 3.421875-7.664062 7.664062v194.082031c0 17.113282 13.925781 31.039063 31.039062 31.039063h162.65625v23.898437c0 15.246094 13.40625 27.648438 29.875 27.648438h222.191407c16.480469 0 29.886719-12.402344 29.886719-27.648438 0-11.320312 0-440.96875 0-443.992187 0-14.367187-11.6875-26.054687-26.054688-26.054687zm-270.6875 24.925781h-102.667969l-4.667969-23.90625h111.457032zm14.789062 106.121093c-42.671874-66.882812-145.445312-35.363281-145.445312 42.492188 0 43.140625 34.921875 78.960938 78.921875 78.960938 26.164063 0 51.59375-13.113282 66.523437-36.421876v45.570313c-4.164062-1.585937 4.929688-1.109375-130.613281-1.109375-9.292969 0-16.855469 7.5625-16.855469 16.855469v71.519531c0 9.296875 7.5625 16.859375 16.855469 16.859375h124.648438c2.101562 0 4.109375-.402344 5.964843-1.109375v41.988281h-148.484374c-3.035157 0-5.496094-2.464843-5.496094-5.488281v-332.609375c0-3.023437 2.460937-5.484375 5.496094-5.484375h148.484374zm-19.636718 85.53125c-38.96875 42.449219-110.484375 14.972657-110.484375-43.039062 0-54.804688 65.703125-84.429688 106.640625-46.847656 25.695312 23.589844 27.75 63.84375 3.84375 89.886718zm15.207031 60.816407v71.519531c0 .84375-.6875 1.535156-1.535156 1.535156-133.46875 0-126.179688.742188-126.179688-1.535156v-71.519531c0-.84375.6875-1.53125 1.53125-1.53125h124.648438c.847656 0 1.535156.6875 1.535156 1.53125zm6.894531-262.359375 2.417969-14.015625h13.957031c-7.261718 2.089843-13.210937 7.273437-16.375 14.015625zm264.160156 455.011718c0 6.796876-6.527343 12.324219-14.558593 12.324219h-222.191407c-8.019531 0-14.546874-5.527343-14.546874-12.324219 0-7.332031 0-58.640624 0-68.824218 17.902343 27.90625 48.496093 44.855468 81.808593 44.855468h87.679688c34.3125 0 64.523437-17.882812 81.808593-44.816406zm0 0"/><path d="m435.886719 93.648438c4.234375 0 7.664062-3.433594 7.664062-7.664063v-17.851563c0-10.703124-8.707031-19.414062-19.414062-19.414062h-178.9375c-10.703125 0-19.414063 8.710938-19.414063 19.414062v79.734376c0 10.707031 8.710938 19.414062 19.414063 19.414062h178.941406c10.703125 0 19.410156-8.707031 19.410156-19.414062v-31.234376c0-4.230468-3.429687-7.660156-7.664062-7.660156-4.230469 0-7.660157 3.429688-7.660157 7.660156v31.234376c0 2.253906-1.832031 4.085937-4.085937 4.085937h-178.941406c-2.253907 0-4.085938-1.832031-4.085938-4.085937v-79.734376c0-2.253906 1.832031-4.085937 4.085938-4.085937h178.941406c2.253906 0 4.085937 1.832031 4.085937 4.085937v17.851563c0 4.230469 3.429688 7.664063 7.660157 7.664063zm0 0"/><path d="m288.84375 199.859375c0-7.980469-6.496094-14.476563-14.476562-14.476563h-34.105469c-7.984375 0-14.476563 6.496094-14.476563 14.476563v21.164063c0 7.980468 6.492188 14.472656 14.476563 14.472656h34.105469c7.980468 0 14.476562-6.492188 14.476562-14.472656zm-15.328125 20.308594h-32.402344v-19.457031h32.402344zm0 0"/><path d="m443.550781 199.859375c0-7.980469-6.492187-14.476563-14.472656-14.476563h-34.109375c-7.980469 0-14.472656 6.496094-14.472656 14.476563v21.164063c0 7.980468 6.492187 14.472656 14.472656 14.472656h34.109375c7.980469 0 14.472656-6.492188 14.472656-14.472656zm-15.324219 20.308594h-32.40625v-19.457031h32.40625zm0 0"/><path d="m366.195312 199.859375c0-7.980469-6.492187-14.476563-14.472656-14.476563h-34.105468c-7.984376 0-14.476563 6.496094-14.476563 14.476563v21.164063c0 7.980468 6.492187 14.472656 14.476563 14.472656h34.105468c7.980469 0 14.472656-6.492188 14.472656-14.472656zm-15.324218 20.308594h-32.402344v-19.457031h32.402344zm0 0"/><path d="m288.84375 259.066406c0-7.980468-6.496094-14.472656-14.476562-14.472656h-34.105469c-7.984375 0-14.476563 6.492188-14.476563 14.472656v21.164063c0 7.980469 6.492188 14.476562 14.476563 14.476562h34.105469c7.980468 0 14.476562-6.496093 14.476562-14.476562zm-15.328125 20.3125h-32.402344v-19.460937h32.402344zm0 0"/><path d="m443.550781 259.066406c0-7.980468-6.492187-14.472656-14.472656-14.472656h-34.109375c-7.980469 0-14.472656 6.492188-14.472656 14.472656v21.164063c0 7.980469 6.492187 14.476562 14.472656 14.476562h34.109375c7.980469 0 14.472656-6.496093 14.472656-14.476562zm-15.324219 20.3125h-32.40625v-19.460937h32.40625zm0 0"/><path d="m366.195312 259.066406c0-7.980468-6.492187-14.472656-14.472656-14.472656h-34.105468c-7.984376 0-14.476563 6.492188-14.476563 14.472656v21.164063c0 7.980469 6.492187 14.476562 14.476563 14.476562h34.105468c7.980469 0 14.472656-6.496093 14.472656-14.476562zm-15.324218 20.3125h-32.402344v-19.460937h32.402344zm0 0"/><path d="m288.84375 318.277344c0-7.980469-6.496094-14.472656-14.476562-14.472656h-34.105469c-7.984375 0-14.476563 6.492187-14.476563 14.472656v21.164062c0 7.980469 6.492188 14.472656 14.476563 14.472656h34.105469c7.980468 0 14.476562-6.492187 14.476562-14.472656zm-15.328125 20.3125h-32.402344v-19.460938h32.402344zm0 0"/><path d="m443.550781 318.277344c0-7.980469-6.492187-14.472656-14.472656-14.472656h-34.109375c-7.980469 0-14.472656 6.492187-14.472656 14.472656v21.164062c0 7.980469 6.492187 14.472656 14.472656 14.472656h34.109375c7.980469 0 14.472656-6.492187 14.472656-14.472656zm-15.324219 20.3125h-32.40625v-19.460938h32.40625zm0 0"/><path d="m366.195312 318.277344c0-7.980469-6.492187-14.472656-14.472656-14.472656h-34.105468c-7.984376 0-14.476563 6.492187-14.476563 14.472656v21.164062c0 7.980469 6.492187 14.472656 14.476563 14.472656h34.105468c7.980469 0 14.472656-6.492187 14.472656-14.472656zm-15.324218 20.3125h-32.402344v-19.460938h32.402344zm0 0"/><path d="m274.367188 363.011719h-34.105469c-7.984375 0-14.476563 6.496093-14.476563 14.476562v21.160157c0 7.984374 6.492188 14.476562 14.476563 14.476562h34.105469c7.980468 0 14.476562-6.492188 14.476562-14.476562v-21.160157c0-7.980469-6.496094-14.476562-14.476562-14.476562zm-.851563 34.785156h-32.402344v-19.457031h32.402344zm0 0"/><path d="m429.078125 363.011719h-34.109375c-7.980469 0-14.472656 6.496093-14.472656 14.476562v21.160157c0 7.984374 6.492187 14.476562 14.472656 14.476562h34.109375c7.980469 0 14.472656-6.492188 14.472656-14.476562v-21.160157c0-7.980469-6.492187-14.476562-14.472656-14.476562zm-.851563 34.785156h-32.40625v-19.457031h32.40625zm0 0"/><path d="m351.722656 363.011719h-34.105468c-7.984376 0-14.476563 6.496093-14.476563 14.476562v21.160157c0 7.984374 6.492187 14.476562 14.476563 14.476562h34.105468c7.980469 0 14.472656-6.492188 14.472656-14.476562v-21.160157c0-7.980469-6.492187-14.476562-14.472656-14.476562zm-.851562 34.785156h-32.402344v-19.457031h32.402344zm0 0"/><path d="m274.046875 135.078125c4.234375 0 7.664063-3.433594 7.664063-7.664063v-11.75h11.75c4.230468 0 7.660156-3.429687 7.660156-7.664062 0-4.230469-3.429688-7.660156-7.660156-7.660156h-11.75v-11.75c0-4.234375-3.429688-7.664063-7.664063-7.664063-4.230469 0-7.664063 3.429688-7.664063 7.664063v11.75h-11.746093c-4.234375 0-7.664063 3.429687-7.664063 7.660156 0 4.234375 3.429688 7.664062 7.664063 7.664062h11.746093v11.75c0 4.230469 3.433594 7.664063 7.664063 7.664063zm0 0"/><path d="m334.667969 135.078125c4.234375 0 7.664062-3.433594 7.664062-7.664063v-11.75h11.75c4.230469 0 7.660157-3.429687 7.660157-7.664062 0-4.230469-3.429688-7.660156-7.660157-7.660156h-11.75v-11.75c0-4.234375-3.429687-7.664063-7.664062-7.664063-4.230469 0-7.660157 3.429688-7.660157 7.664063v11.75h-11.75c-4.234374 0-7.664062 3.429687-7.664062 7.660156 0 4.234375 3.429688 7.664062 7.664062 7.664062h11.75v11.75c0 4.230469 3.429688 7.664063 7.660157 7.664063zm0 0"/><path d="m395.289062 135.078125c4.234376 0 7.664063-3.433594 7.664063-7.664063v-11.75h11.75c4.230469 0 7.664063-3.429687 7.664063-7.664062 0-4.230469-3.433594-7.660156-7.664063-7.660156h-11.75v-11.75c0-4.234375-3.429687-7.664063-7.664063-7.664063-4.230468 0-7.660156 3.429688-7.660156 7.664063v11.75h-11.75c-4.234375 0-7.664062 3.429687-7.664062 7.660156 0 4.234375 3.429687 7.664062 7.664062 7.664062h11.75v11.75c0 4.230469 3.429688 7.664063 7.660156 7.664063zm0 0"/><path d="m89.285156 34.632812h44.894532c4.230468 0 7.660156-3.429687 7.660156-7.664062 0-4.230469-3.429688-7.660156-7.660156-7.660156h-44.894532c-4.234375 0-7.664062 3.429687-7.664062 7.660156 0 4.234375 3.429687 7.664062 7.664062 7.664062zm0 0"/><path d="m169.726562 27.546875c0 3.734375-3.03125 6.765625-6.765624 6.765625-3.734376 0-6.765626-3.03125-6.765626-6.765625s3.03125-6.761719 6.765626-6.761719c3.734374 0 6.765624 3.027344 6.765624 6.761719zm0 0"/><path d="m121.441406 172.941406c0-1.296875 0-4.335937 6.921875-4.335937 6.449219 0 7.523438 3.078125 11.253907 3.078125 6.6875 0 13.632812-13.535156-4.761719-16.691406v-6.273438c0-4.230469-3.429688-7.664062-7.660157-7.664062-4.234374 0-7.664062 3.433593-7.664062 7.664062v6.976562c-8.226562 2.558594-13.0625 8.933594-13.0625 17.890626 0 22.222656 26.632812 16.914062 26.632812 28.582031 0 1.777343 0 5.949219-7.164062 5.949219-8.46875 0-8.339844-6.554688-13.84375-6.554688-4.054688 0-7.085938 4.121094-7.085938 7.808594 0 5.066406 5.714844 10.59375 14.523438 12.523437v5.113281c0 4.230469 3.429688 7.660157 7.660156 7.660157 4.234375 0 7.664063-3.429688 7.664063-7.660157v-5.714843c8.320312-2.777344 13.21875-9.828125 13.21875-19.773438.003906-23.890625-26.632813-20.101562-26.632813-28.578125zm0 0"/><path d="m88.203125 301.644531h-14.53125c-2.457031 0-4.074219 1.546875-4.074219 3.300781v44.648438c0 4.492188 10.953125 4.492188 10.953125 0v-15.164062c7.574219 0 24.21875 1.824218 24.21875-16.285157 0-11.042969-5.957031-16.5-16.566406-16.5zm-7.652344 24.363281v-14.8125h6.949219c3.933594 0 6.320312 2.246094 6.320312 7.019532 0 9.046875-5.078124 7.792968-13.269531 7.792968zm0 0"/><path d="m130.957031 304.875c-1.53125-4.871094-12.789062-4.878906-14.324219 0-.140624.464844-13.195312 43.109375-13.195312 43.597656 0 3.9375 9.449219 6.488282 10.601562 2.457032l2.386719-8.777344h14.8125l2.386719 8.777344c1.191406 4.171874 11.601562 1.355468 10.457031-3.230469zm-12.285156 28.855469 5.125-18.816407 5.125 18.816407zm0 0"/><path d="m173.570312 301.644531c-2.792968 0-2.019531-.074219-12.917968 20.078125-10.910156-20.027344-10.203125-20.078125-12.988282-20.078125-4.214843 0-8.441406 2.992188-7.300781 5.265625l14.535157 24.082032c.136718.207031.277343.558593.277343.980468v17.621094c0 4.492188 10.953125 4.492188 10.953125 0v-17.621094c0-.421875.140625-.773437.277344-.980468 15.664062-26.078126 14.605469-24.015626 14.605469-24.851563 0-2.597656-4.421875-4.496094-7.441407-4.496094zm0 0"/></svg>